<svg width="53" height="43" viewBox="0 0 53 43" fill="none" xmlns="http://www.w3.org/2000/svg">
<path d="M4 21V5H37.5V21" stroke="#062E40"/>
<path d="M1.5 24H12.5" stroke="#062E40"/>
<path d="M0 27.5H4.5M9 27.5H4.5M4.5 27.5V31H10" stroke="#062E40"/>
<path d="M19.5 31H37.5M39.5 31H38H37.5M37.5 31V24" stroke="#062E40"/>
<path d="M48.5 31H52.5V21.5C52.5 19.8431 51.1569 18.5 49.5 18.5V18.5M49.5 18.5H37.5V12H46.5L49.5 18.5Z" stroke="#062E40"/>
<path d="M52.5 22H49C48.4477 22 48 22.4477 48 23V24.5C48 25.0523 48.4477 25.5 49 25.5H52.5" stroke="#062E40" stroke-linejoin="round"/>
<path d="M37.5 8V7.5C37.2239 7.5 37 7.72386 37 8H37.5ZM46.5 12V12.5C46.7761 12.5 47 12.2761 47 12H46.5ZM37.5 12H37C37 12.2761 37.2239 12.5 37.5 12.5V12ZM37.5 8.5H43.5V7.5H37.5V8.5ZM46 11V12H47V11H46ZM46.5 11.5H37.5V12.5H46.5V11.5ZM38 12V8H37V12H38ZM43.5 8.5C44.8807 8.5 46 9.61929 46 11H47C47 9.067 45.433 7.5 43.5 7.5V8.5Z" fill="#062E40"/>
<path d="M50 31.5C50 34.5376 47.5376 37 44.5 37C41.4624 37 39 34.5376 39 31.5C39 28.4624 41.4624 26 44.5 26C47.5376 26 50 28.4624 50 31.5ZM40.2829 31.5C40.2829 33.829 42.171 35.7171 44.5 35.7171C46.829 35.7171 48.7171 33.829 48.7171 31.5C48.7171 29.171 46.829 27.2829 44.5 27.2829C42.171 27.2829 40.2829 29.171 40.2829 31.5Z" fill="#062E40"/>
<path d="M21.5 27.5H34.5" stroke="#062E40" stroke-linejoin="round"/>
<path d="M15 15.5L20 20.5L28.5 12" stroke="#062E40" stroke-linejoin="round"/>
<path d="M20 31.5C20 34.5376 17.5376 37 14.5 37C11.4624 37 9 34.5376 9 31.5C9 28.4624 11.4624 26 14.5 26C17.5376 26 20 28.4624 20 31.5ZM10.2829 31.5C10.2829 33.829 12.171 35.7171 14.5 35.7171C16.829 35.7171 18.7171 33.829 18.7171 31.5C18.7171 29.171 16.829 27.2829 14.5 27.2829C12.171 27.2829 10.2829 29.171 10.2829 31.5Z" fill="#062E40"/>
</svg>
