<svg width="53" height="43" viewBox="0 0 53 43" fill="none" xmlns="http://www.w3.org/2000/svg">
<path d="M17 28.5L13.5 40.5L18.5 39L21.5 42.5L25 31.5H27L30 42.5L33.5 39L38 40.5L35 28" stroke="black" stroke-linejoin="round"/>
<circle cx="26" cy="16" r="9.5" stroke="black"/>
<path d="M23 12H29" stroke="black" stroke-linejoin="round"/>
<path d="M21 16H27" stroke="black" stroke-linejoin="round"/>
<path d="M28.5 16H31.5" stroke="black" stroke-linejoin="round"/>
<path d="M23 19.5H29.5" stroke="black" stroke-linejoin="round"/>
<path d="M30.1567 2.89352L30.2429 2.94168L30.341 2.95341L35.068 3.51902L37.0666 7.83985L37.1081 7.92951L37.1805 7.99667L40.6723 11.2327L39.7495 15.9031L39.7303 16L39.7495 16.0969L40.6723 20.7673L37.1805 24.0033L37.1081 24.0705L37.0666 24.1602L35.068 28.481L30.341 29.0466L30.2429 29.0583L30.1567 29.1065L26 31.4273L21.8434 29.1065L21.7571 29.0583L21.659 29.0466L16.932 28.481L14.9334 24.1602L14.8919 24.0705L14.8195 24.0033L11.3277 20.7673L12.2505 16.0969L12.2697 16L12.2505 15.9031L11.3277 11.2327L14.8195 7.99667L14.8919 7.92951L14.9334 7.83985L16.932 3.51902L21.659 2.95341L21.7571 2.94168L21.8434 2.89352L26 0.572659L30.1567 2.89352Z" stroke="black"/>
</svg>
